<mxfile host="app.diagrams.net" modified="2024-05-20T16:05:46.295Z" agent="Mozilla/5.0 (Windows NT 10.0; Win64; x64) AppleWebKit/537.36 (KHTML, like Gecko) Chrome/124.0.0.0 Safari/537.36" version="24.4.4" etag="iPCCuP5jVv4o7VThOYoc" type="github">
  <diagram name="第 1 页" id="aGHFt9Zq1_8Brc2ZaiYJ">
    <mxGraphModel>
      <root>
        <mxCell id="0" />
        <mxCell id="1" parent="0" />
      </root>
    </mxGraphModel>
  </diagram>
</mxfile>
